  0
SECTION
  2
HEADER
  9
$ACADVER
  1
AC1024
  9
$ACADMAINTVER
 70
     6
  9
$DWGCODEPAGE
  3
ANSI_1252
  9
$INSBASE
 10
0.0
 20
0.0
 30
0.0
  9
$EXTMIN
 10
1.000000000000000E+20
 20
1.000000000000000E+20
 30
1.000000000000000E+20
  9
$EXTMAX
 10
-1.000000000000000E+20
 20
-1.000000000000000E+20
 30
-1.000000000000000E+20
  9
$LIMMIN
 10
0.0
 20
0.0
  9
$LIMMAX
 10
12.0
 20
9.0
  9
$ORTHOMODE
 70
     0
  9
$REGENMODE
 70
     1
  9
$FILLMODE
 70
     1
  9
$QTEXTMODE
 70
     0
  9
$MIRRTEXT
 70
     1
  9
$LTSCALE
 40
1.0
  9
$ATTMODE
 70
     1
  9
$TEXTSIZE
 40
0.2
  9
$TRACEWID
 40
0.05
  9
$TEXTSTYLE
  7
Standard
  9
$CLAYER
  8
0
  9
$CELTYPE
  6
ByLayer
  9
$CECOLOR
 62
   256
  9
$CELTSCALE
 40
1.0
  9
$DISPSILH
 70
     0
  9
$DIMSCALE
 40
1.0
  9
$DIMASZ
 40
0.18
  9
$DIMEXO
 40
0.0625
  9
$DIMDLI
 40
0.38
  9
$DIMRND
 40
0.0
  9
$DIMDLE
 40
0.0
  9
$DIMEXE
 40
0.18
  9
$DIMTP
 40
0.0
  9
$DIMTM
 40
0.0
  9
$DIMTXT
 40
0.18
  9
$DIMCEN
 40
0.09
  9
$DIMTSZ
 40
0.0
  9
$DIMTOL
 70
     0
  9
$DIMLIM
 70
     0
  9
$DIMTIH
 70
     1
  9
$DIMTOH
 70
     1
  9
$DIMSE1
 70
     0
  9
$DIMSE2
 70
     0
  9
$DIMTAD
 70
     0
  9
$DIMZIN
 70
     0
  9
$DIMBLK
  1

  9
$DIMASO
 70
     1
  9
$DIMSHO
 70
     1
  9
$DIMPOST
  1

  9
$DIMAPOST
  1

  9
$DIMALT
 70
     0
  9
$DIMALTD
 70
     2
  9
$DIMALTF
 40
25.4
  9
$DIMLFAC
 40
1.0
  9
$DIMTOFL
 70
     0
  9
$DIMTVP
 40
0.0
  9
$DIMTIX
 70
     0
  9
$DIMSOXD
 70
     0
  9
$DIMSAH
 70
     0
  9
$DIMBLK1
  1

  9
$DIMBLK2
  1

  9
$DIMSTYLE
  2
Standard
  9
$DIMCLRD
 70
     0
  9
$DIMCLRE
 70
     0
  9
$DIMCLRT
 70
     0
  9
$DIMTFAC
 40
1.0
  9
$DIMGAP
 40
0.09
  9
$DIMJUST
 70
     0
  9
$DIMSD1
 70
     0
  9
$DIMSD2
 70
     0
  9
$DIMTOLJ
 70
     1
  9
$DIMTZIN
 70
     0
  9
$DIMALTZ
 70
     0
  9
$DIMALTTZ
 70
     0
  9
$DIMUPT
 70
     0
  9
$DIMDEC
 70
     4
  9
$DIMTDEC
 70
     4
  9
$DIMALTU
 70
     2
  9
$DIMALTTD
 70
     2
  9
$DIMTXSTY
  7
Standard
  9
$DIMAUNIT
 70
     0
  9
$DIMADEC
 70
     0
  9
$DIMALTRND
 40
0.0
  9
$DIMAZIN
 70
     0
  9
$DIMDSEP
 70
    46
  9
$DIMATFIT
 70
     3
  9
$DIMFRAC
 70
     0
  9
$DIMLDRBLK
  1

  9
$DIMLUNIT
 70
     2
  9
$DIMLWD
 70
    -2
  9
$DIMLWE
 70
    -2
  9
$DIMTMOVE
 70
     0
  9
$DIMFXL
 40
1.0
  9
$DIMFXLON
 70
     0
  9
$DIMJOGANG
 40
0.7853981633974483
  9
$DIMTFILL
 70
     0
  9
$DIMTFILLCLR
 70
     0
  9
$DIMARCSYM
 70
     0
  9
$DIMLTYPE
  6

  9
$DIMLTEX1
  6

  9
$DIMLTEX2
  6

  9
$DIMTXTDIRECTION
 70
     0
  9
$LUNITS
 70
     2
  9
$LUPREC
 70
     4
  9
$SKETCHINC
 40
0.1
  9
$FILLETRAD
 40
0.5
  9
$AUNITS
 70
     0
  9
$AUPREC
 70
     0
  9
$MENU
  1
.
  9
$ELEVATION
 40
0.0
  9
$PELEVATION
 40
0.0
  9
$THICKNESS
 40
0.0
  9
$LIMCHECK
 70
     0
  9
$CHAMFERA
 40
0.5
  9
$CHAMFERB
 40
0.5
  9
$CHAMFERC
 40
1.0
  9
$CHAMFERD
 40
0.0
  9
$SKPOLY
 70
     0
  9
$TDCREATE
 40
2458941.714637327
  9
$TDUCREATE
 40
2458941.964637327
  9
$TDUPDATE
 40
2458941.714637373
  9
$TDUUPDATE
 40
2458941.964637373
  9
$TDINDWG
 40
0.0000000116
  9
$TDUSRTIMER
 40
0.0000000116
  9
$USRTIMER
 70
     1
  9
$ANGBASE
 50
0.0
  9
$ANGDIR
 70
     0
  9
$PDMODE
 70
     0
  9
$PDSIZE
 40
0.0
  9
$PLINEWID
 40
0.0
  9
$SPLFRAME
 70
     0
  9
$SPLINETYPE
 70
     6
  9
$SPLINESEGS
 70
     8
  9
$HANDSEED
  5
4F
  9
$SURFTAB1
 70
     6
  9
$SURFTAB2
 70
     6
  9
$SURFTYPE
 70
     6
  9
$SURFU
 70
     6
  9
$SURFV
 70
     6
  9
$UCSBASE
  2

  9
$UCSNAME
  2

  9
$UCSORG
 10
0.0
 20
0.0
 30
0.0
  9
$UCSXDIR
 10
1.0
 20
0.0
 30
0.0
  9
$UCSYDIR
 10
0.0
 20
1.0
 30
0.0
  9
$UCSORTHOREF
  2

  9
$UCSORTHOVIEW
 70
     0
  9
$UCSORGTOP
 10
0.0
 20
0.0
 30
0.0
  9
$UCSORGBOTTOM
 10
0.0
 20
0.0
 30
0.0
  9
$UCSORGLEFT
 10
0.0
 20
0.0
 30
0.0
  9
$UCSORGRIGHT
 10
0.0
 20
0.0
 30
0.0
  9
$UCSORGFRONT
 10
0.0
 20
0.0
 30
0.0
  9
$UCSORGBACK
 10
0.0
 20
0.0
 30
0.0
  9
$PUCSBASE
  2

  9
$PUCSNAME
  2

  9
$PUCSORG
 10
0.0
 20
0.0
 30
0.0
  9
$PUCSXDIR
 10
1.0
 20
0.0
 30
0.0
  9
$PUCSYDIR
 10
0.0
 20
1.0
 30
0.0
  9
$PUCSORTHOREF
  2

  9
$PUCSORTHOVIEW
 70
     0
  9
$PUCSORGTOP
 10
0.0
 20
0.0
 30
0.0
  9
$PUCSORGBOTTOM
 10
0.0
 20
0.0
 30
0.0
  9
$PUCSORGLEFT
 10
0.0
 20
0.0
 30
0.0
  9
$PUCSORGRIGHT
 10
0.0
 20
0.0
 30
0.0
  9
$PUCSORGFRONT
 10
0.0
 20
0.0
 30
0.0
  9
$PUCSORGBACK
 10
0.0
 20
0.0
 30
0.0
  9
$USERI1
 70
     0
  9
$USERI2
 70
     0
  9
$USERI3
 70
     0
  9
$USERI4
 70
     0
  9
$USERI5
 70
     0
  9
$USERR1
 40
0.0
  9
$USERR2
 40
0.0
  9
$USERR3
 40
0.0
  9
$USERR4
 40
0.0
  9
$USERR5
 40
0.0
  9
$WORLDVIEW
 70
     1
  9
$SHADEDGE
 70
     3
  9
$SHADEDIF
 70
    70
  9
$TILEMODE
 70
     1
  9
$MAXACTVP
 70
    64
  9
$PINSBASE
 10
0.0
 20
0.0
 30
0.0
  9
$PLIMCHECK
 70
     0
  9
$PEXTMIN
 10
1.000000000000000E+20
 20
1.000000000000000E+20
 30
1.000000000000000E+20
  9
$PEXTMAX
 10
-1.000000000000000E+20
 20
-1.000000000000000E+20
 30
-1.000000000000000E+20
  9
$PLIMMIN
 10
0.0
 20
0.0
  9
$PLIMMAX
 10
12.0
 20
9.0
  9
$UNITMODE
 70
     0
  9
$VISRETAIN
 70
     1
  9
$PLINEGEN
 70
     0
  9
$PSLTSCALE
 70
     1
  9
$TREEDEPTH
 70
  3020
  9
$CMLSTYLE
  2
Standard
  9
$CMLJUST
 70
     0
  9
$CMLSCALE
 40
1.0
  9
$PROXYGRAPHICS
 70
     1
  9
$MEASUREMENT
 70
     0
  9
$CELWEIGHT
370
    -1
  9
$ENDCAPS
280
     0
  9
$JOINSTYLE
280
     0
  9
$LWDISPLAY
290
     1
  9
$INSUNITS
 70
     4
  9
$HYPERLINKBASE
  1

  9
$STYLESHEET
  1

  9
$XEDIT
290
     1
  9
$CEPSNTYPE
380
     0
  9
$PSTYLEMODE
290
     1
  9
$FINGERPRINTGUID
  2
{254D6135-B051-467D-A321-319837F784E7}
  9
$VERSIONGUID
  2
{FAEB1C32-E019-11D5-929B-00C0DF256EC4}
  9
$EXTNAMES
290
     1
  9
$PSVPSCALE
 40
0.0
  9
$OLESTARTUP
290
     0
  9
$SORTENTS
280
   127
  9
$INDEXCTL
280
     0
  9
$HIDETEXT
280
     1
  9
$XCLIPFRAME
280
     2
  9
$HALOGAP
280
     0
  9
$OBSCOLOR
 70
   257
  9
$OBSLTYPE
280
     0
  9
$INTERSECTIONDISPLAY
280
     0
  9
$INTERSECTIONCOLOR
 70
   257
  9
$DIMASSOC
280
     2
  9
$PROJECTNAME
  1

  9
$CAMERADISPLAY
290
     0
  9
$LENSLENGTH
 40
50.0
  9
$CAMERAHEIGHT
 40
0.0
  9
$STEPSPERSEC
 40
2.0
  9
$STEPSIZE
 40
6.0
  9
$3DDWFPREC
 40
2.0
  9
$PSOLWIDTH
 40
0.25
  9
$PSOLHEIGHT
 40
4.0
  9
$LOFTANG1
 40
1.570796326794897
  9
$LOFTANG2
 40
1.570796326794897
  9
$LOFTMAG1
 40
0.0
  9
$LOFTMAG2
 40
0.0
  9
$LOFTPARAM
 70
     7
  9
$LOFTNORMALS
280
     1
  9
$LATITUDE
 40
37.795
  9
$LONGITUDE
 40
-122.394
  9
$NORTHDIRECTION
 40
0.0
  9
$TIMEZONE
 70
 -8000
  9
$LIGHTGLYPHDISPLAY
280
     1
  9
$TILEMODELIGHTSYNCH
280
     1
  9
$CMATERIAL
347
3C
  9
$SOLIDHIST
280
     1
  9
$SHOWHIST
280
     1
  9
$DWFFRAME
280
     2
  9
$DGNFRAME
280
     2
  9
$REALWORLDSCALE
290
     1
  9
$INTERFERECOLOR
 62
   256
  9
$CSHADOW
280
     0
  9
$SHADOWPLANELOCATION
 40
0.0
  0
ENDSEC
  0
SECTION
  2
CLASSES
  0
CLASS
  1
ACDBDICTIONARYWDFLT
  2
AcDbDictionaryWithDefault
  3
ObjectDBX Classes
 90
        0
 91
        4
280
     0
281
     0
  0
CLASS
  1
VISUALSTYLE
  2
AcDbVisualStyle
  3
ObjectDBX Classes
 90
     4095
 91
        4
280
     0
281
     0
  0
CLASS
  1
MATERIAL
  2
AcDbMaterial
  3
ObjectDBX Classes
 90
     1153
 91
        4
280
     0
281
     0
  0
CLASS
  1
SUN
  2
AcDbSun
  3
SCENEOE
 90
     1024
 91
        4
280
     0
281
     0
  0
ENDSEC
  0
SECTION
  2
TABLES
  0
TABLE
  2
VPORT
  5
8
330
0
100
AcDbSymbolTable
 70
     1
  0
VPORT
  5
29
330
8
100
AcDbSymbolTableRecord
100
AcDbViewportTableRecord
  2
*Active
 70
     0
 10
0.0
 20
0.0
 11
1.0
 21
1.0
 12
0.0
 22
0.0
 13
0.0
 23
0.0
 14
0.5
 24
0.5
 15
0.5
 25
0.5
 16
0.0
 26
0.0
 36
1.0
 17
104.6111110849583
 27
-114.0111110826084
 37
0.0
 40
228.0222221652168
 41
0.9175518955267509
 42
50.0
 43
0.0
 44
0.0
 50
0.0
 51
0.0
 71
     0
 72
   100
 73
     1
 74
     3
 75
     0
 76
     0
 77
     0
 78
     0
281
     0
 65
     1
110
0.0
120
0.0
130
0.0
111
1.0
121
0.0
131
0.0
112
0.0
122
1.0
132
0.0
 79
     0
146
0.0
 60
     3
 61
     5
292
     1
282
     1
141
0.0
142
0.0
 63
   250
361
3F
  0
ENDTAB
  0
TABLE
  2
LTYPE
  5
5
330
0
100
AcDbSymbolTable
 70
     1
  0
LTYPE
  5
14
330
5
100
AcDbSymbolTableRecord
100
AcDbLinetypeTableRecord
  2
ByBlock
 70
     0
  3

 72
    65
 73
     0
 40
0.0
  0
LTYPE
  5
15
330
5
100
AcDbSymbolTableRecord
100
AcDbLinetypeTableRecord
  2
ByLayer
 70
     0
  3

 72
    65
 73
     0
 40
0.0
  0
LTYPE
  5
16
330
5
100
AcDbSymbolTableRecord
100
AcDbLinetypeTableRecord
  2
Continuous
 70
     0
  3
Solid line
 72
    65
 73
     0
 40
0.0
  0
ENDTAB
  0
TABLE
  2
LAYER
  5
2
330
0
100
AcDbSymbolTable
 70
     2
  0
LAYER
  5
10
330
2
100
AcDbSymbolTableRecord
100
AcDbLayerTableRecord
  2
0
 70
     0
 62
     7
  6
Continuous
370
    -3
390
F
347
3E
  0
LAYER
  5
40
330
2
100
AcDbSymbolTableRecord
100
AcDbLayerTableRecord
  2
Capa 3
 70
     0
 62
     7
  6
Continuous
370
    -3
390
F
347
3E
  0
ENDTAB
  0
TABLE
  2
STYLE
  5
3
330
0
100
AcDbSymbolTable
 70
     1
  0
STYLE
  5
11
330
3
100
AcDbSymbolTableRecord
100
AcDbTextStyleTableRecord
  2
Standard
 70
     0
 40
0.0
 41
1.0
 50
0.0
 71
     0
 42
0.2
  3
txt
  4

  0
ENDTAB
  0
TABLE
  2
VIEW
  5
6
330
0
100
AcDbSymbolTable
 70
     0
  0
ENDTAB
  0
TABLE
  2
UCS
  5
7
330
0
100
AcDbSymbolTable
 70
     0
  0
ENDTAB
  0
TABLE
  2
APPID
  5
9
330
0
100
AcDbSymbolTable
 70
     1
  0
APPID
  5
12
330
9
100
AcDbSymbolTableRecord
100
AcDbRegAppTableRecord
  2
ACAD
 70
     0
  0
ENDTAB
  0
TABLE
  2
DIMSTYLE
  5
A
330
0
100
AcDbSymbolTable
 70
     1
100
AcDbDimStyleTable
  0
DIMSTYLE
105
27
330
A
100
AcDbSymbolTableRecord
100
AcDbDimStyleTableRecord
  2
Standard
 70
     0
178
     0
340
11
  0
ENDTAB
  0
TABLE
  2
BLOCK_RECORD
  5
1
330
0
100
AcDbSymbolTable
 70
     2
  0
BLOCK_RECORD
  5
1F
330
1
100
AcDbSymbolTableRecord
100
AcDbBlockTableRecord
  2
*Model_Space
340
22
 70
     0
280
     1
281
     0
  0
BLOCK_RECORD
  5
1B
330
1
100
AcDbSymbolTableRecord
100
AcDbBlockTableRecord
  2
*Paper_Space
340
1E
 70
     0
280
     1
281
     0
  0
BLOCK_RECORD
  5
23
330
1
100
AcDbSymbolTableRecord
100
AcDbBlockTableRecord
  2
*Paper_Space0
340
26
 70
     0
280
     1
281
     0
  0
BLOCK_RECORD
  5
41
330
1
100
AcDbSymbolTableRecord
100
AcDbBlockTableRecord
  2
block 2
340
0
102
{BLKREFS
331
42
102
}
 70
     0
280
     1
281
     0
  0
ENDTAB
  0
ENDSEC
  0
SECTION
  2
BLOCKS
  0
BLOCK
  5
20
330
1F
100
AcDbEntity
  8
0
100
AcDbBlockBegin
  2
*Model_Space
 70
     0
 10
0.0
 20
0.0
 30
0.0
  3
*Model_Space
  1

  0
ENDBLK
  5
21
330
1F
100
AcDbEntity
  8
0
100
AcDbBlockEnd
  0
BLOCK
  5
1C
330
1B
100
AcDbEntity
 67
     1
  8
0
100
AcDbBlockBegin
  2
*Paper_Space
 70
     0
 10
0.0
 20
0.0
 30
0.0
  3
*Paper_Space
  1

  0
ENDBLK
  5
1D
330
1B
100
AcDbEntity
 67
     1
  8
0
100
AcDbBlockEnd
  0
BLOCK
  5
24
330
23
100
AcDbEntity
  8
0
100
AcDbBlockBegin
  2
*Paper_Space0
 70
     0
 10
0.0
 20
0.0
 30
0.0
  3
*Paper_Space0
  1

  0
ENDBLK
  5
25
330
23
100
AcDbEntity
  8
0
100
AcDbBlockEnd
  0
BLOCK
  5
43
330
41
100
AcDbEntity
  8
0
100
AcDbBlockBegin
  2
block 2
 70
     0
 10
0.0
 20
0.0
 30
0.0
  3
block 2
  1

  0
SPLINE
  5
45
330
41
100
AcDbEntity
  8
Capa 3
 62
   177
420
  2371722
370
    35
100
AcDbSpline
210
0.0
220
0.0
230
1.0
 70
    11
 71
     3
 72
    17
 73
    13
 74
     0
 42
0.0000000001
 43
0.0000000001
 12
1.0
 22
0.0
 32
0.0
 13
1.0
 23
0.0
 33
0.0
 40
0.0
 40
0.0
 40
0.0
 40
0.0
 40
1.0
 40
1.0
 40
1.0
 40
2.0
 40
2.0
 40
2.0
 40
3.0
 40
3.0
 40
3.0
 40
4.0
 40
4.0
 40
4.0
 40
4.0
 10
17.06918480132437
 20
-218.0670216046472
 30
0.0
 10
17.06918480132437
 20
-218.9149901450317
 30
0.0
 10
16.39754083919789
 20
-219.6024044677284
 30
0.0
 10
15.56902602445305
 20
-219.6024044677284
 30
0.0
 10
14.74051120970821
 20
-219.6024044677284
 30
0.0
 10
14.06886724758173
 20
-218.9149901450317
 30
0.0
 10
14.06886724758173
 20
-218.0670216046472
 30
0.0
 10
14.06886724758173
 20
-217.2190530642628
 30
0.0
 10
14.74051120970821
 20
-216.5316387415661
 30
0.0
 10
15.56902602445305
 20
-216.5316387415661
 30
0.0
 10
16.39754083919789
 20
-216.5316387415661
 30
0.0
 10
17.06918480132437
 20
-217.2190530642628
 30
0.0
 10
17.06918480132437
 20
-218.0670216046472
 30
0.0
  0
SPLINE
  5
46
330
41
100
AcDbEntity
  8
Capa 3
 62
   177
420
  2371722
370
    35
100
AcDbSpline
210
0.0
220
0.0
230
1.0
 70
    11
 71
     3
 72
    17
 73
    13
 74
     0
 42
0.0000000001
 43
0.0000000001
 12
1.0
 22
0.0
 32
0.0
 13
1.0
 23
0.0
 33
0.0
 40
0.0
 40
0.0
 40
0.0
 40
0.0
 40
1.0
 40
1.0
 40
1.0
 40
2.0
 40
2.0
 40
2.0
 40
3.0
 40
3.0
 40
3.0
 40
4.0
 40
4.0
 40
4.0
 40
4.0
 10
195.1388365026586
 20
-218.0670216046472
 30
0.0
 10
195.1388365026586
 20
-218.9149901450317
 30
0.0
 10
194.4671925405328
 20
-219.6024044677284
 30
0.0
 10
193.6386777257873
 20
-219.6024044677284
 30
0.0
 10
192.8101629110431
 20
-219.6024044677284
 30
0.0
 10
192.138518948916
 20
-218.9149901450317
 30
0.0
 10
192.138518948916
 20
-218.0670216046472
 30
0.0
 10
192.138518948916
 20
-217.2190530642628
 30
0.0
 10
192.8101629110431
 20
-216.5316387415661
 30
0.0
 10
193.6386777257873
 20
-216.5316387415661
 30
0.0
 10
194.4671925405328
 20
-216.5316387415661
 30
0.0
 10
195.1388365026586
 20
-217.2190530642628
 30
0.0
 10
195.1388365026586
 20
-218.0670216046472
 30
0.0
  0
SPLINE
  5
47
330
41
100
AcDbEntity
  8
Capa 3
 62
   177
420
  2371722
370
    35
100
AcDbSpline
210
0.0
220
0.0
230
1.0
 70
    11
 71
     3
 72
   245
 73
   241
 74
     0
 42
0.0000000001
 43
0.0000000001
 12
1.0
 22
0.0
 32
0.0
 13
1.0
 23
0.0
 33
0.0
 40
0.0
 40
0.0
 40
0.0
 40
0.0
 40
1.0
 40
1.0
 40
1.0
 40
2.0
 40
2.0
 40
2.0
 40
3.0
 40
3.0
 40
3.0
 40
4.0
 40
4.0
 40
4.0
 40
5.0
 40
5.0
 40
5.0
 40
6.0
 40
6.0
 40
6.0
 40
7.0
 40
7.0
 40
7.0
 40
8.0
 40
8.0
 40
8.0
 40
9.0
 40
9.0
 40
9.0
 40
10.0
 40
10.0
 40
10.0
 40
11.0
 40
11.0
 40
11.0
 40
12.0
 40
12.0
 40
12.0
 40
13.0
 40
13.0
 40
13.0
 40
14.0
 40
14.0
 40
14.0
 40
15.0
 40
15.0
 40
15.0
 40
16.0
 40
16.0
 40
16.0
 40
17.0
 40
17.0
 40
17.0
 40
18.0
 40
18.0
 40
18.0
 40
19.0
 40
19.0
 40
19.0
 40
20.0
 40
20.0
 40
20.0
 40
21.0
 40
21.0
 40
21.0
 40
22.0
 40
22.0
 40
22.0
 40
23.0
 40
23.0
 40
23.0
 40
24.0
 40
24.0
 40
24.0
 40
25.0
 40
25.0
 40
25.0
 40
26.0
 40
26.0
 40
26.0
 40
27.0
 40
27.0
 40
27.0
 40
28.0
 40
28.0
 40
28.0
 40
29.0
 40
29.0
 40
29.0
 40
30.0
 40
30.0
 40
30.0
 40
31.0
 40
31.0
 40
31.0
 40
32.0
 40
32.0
 40
32.0
 40
33.0
 40
33.0
 40
33.0
 40
34.0
 40
34.0
 40
34.0
 40
35.0
 40
35.0
 40
35.0
 40
36.0
 40
36.0
 40
36.0
 40
37.0
 40
37.0
 40
37.0
 40
38.0
 40
38.0
 40
38.0
 40
39.0
 40
39.0
 40
39.0
 40
40.0
 40
40.0
 40
40.0
 40
41.0
 40
41.0
 40
41.0
 40
42.0
 40
42.0
 40
42.0
 40
43.0
 40
43.0
 40
43.0
 40
44.0
 40
44.0
 40
44.0
 40
45.0
 40
45.0
 40
45.0
 40
46.0
 40
46.0
 40
46.0
 40
47.0
 40
47.0
 40
47.0
 40
48.0
 40
48.0
 40
48.0
 40
49.0
 40
49.0
 40
49.0
 40
50.0
 40
50.0
 40
50.0
 40
51.0
 40
51.0
 40
51.0
 40
52.0
 40
52.0
 40
52.0
 40
53.0
 40
53.0
 40
53.0
 40
54.0
 40
54.0
 40
54.0
 40
55.0
 40
55.0
 40
55.0
 40
56.0
 40
56.0
 40
56.0
 40
57.0
 40
57.0
 40
57.0
 40
58.0
 40
58.0
 40
58.0
 40
59.0
 40
59.0
 40
59.0
 40
60.0
 40
60.0
 40
60.0
 40
61.0
 40
61.0
 40
61.0
 40
62.0
 40
62.0
 40
62.0
 40
63.0
 40
63.0
 40
63.0
 40
64.0
 40
64.0
 40
64.0
 40
65.0
 40
65.0
 40
65.0
 40
66.0
 40
66.0
 40
66.0
 40
67.0
 40
67.0
 40
67.0
 40
68.0
 40
68.0
 40
68.0
 40
69.0
 40
69.0
 40
69.0
 40
70.0
 40
70.0
 40
70.0
 40
71.0
 40
71.0
 40
71.0
 40
72.0
 40
72.0
 40
72.0
 40
73.0
 40
73.0
 40
73.0
 40
74.0
 40
74.0
 40
74.0
 40
75.0
 40
75.0
 40
75.0
 40
76.0
 40
76.0
 40
76.0
 40
77.0
 40
77.0
 40
77.0
 40
78.0
 40
78.0
 40
78.0
 40
79.0
 40
79.0
 40
79.0
 40
80.0
 40
80.0
 40
80.0
 40
80.0
 10
202.8046555074842
 20
-96.57885759433951
 30
0.0
 10
202.8046555074842
 20
-96.57885759433951
 30
0.0
 10
201.432511906071
 20
-96.74387657630585
 30
0.0
 10
201.432511906071
 20
-96.74387657630585
 30
0.0
 10
200.793186160719
 20
-96.82076421658964
 30
0.0
 10
200.2083616352875
 20
-96.3780496406961
 30
0.0
 10
200.1121436054884
 20
-95.74134624928034
 30
0.0
 10
199.633695350923
 20
-92.57531149533996
 30
0.0
 10
198.9995862818875
 20
-89.0927600402805
 30
0.0
 10
198.1588678273835
 20
-85.40307719956604
 30
0.0
 10
194.9084417688971
 20
-71.13769579274556
 30
0.0
 10
187.8192319385838
 20
-50.76470915267009
 30
0.0
 10
172.5045874891519
 20
-34.71954835447597
 30
0.0
 10
155.9221909648415
 20
-17.34628575209253
 30
0.0
 10
133.1430150638252
 20
-8.357278689308519
 30
0.0
 10
104.7996762105052
 20
-7.997601973335681
 30
0.0
 10
104.7996762105052
 20
-7.997601973335681
 30
0.0
 10
104.7995227804535
 20
-7.997604514024955
 30
0.0
 10
104.7995227804535
 20
-7.997604514024955
 30
0.0
 10
104.4240914182523
 20
-8.00382138240877
 30
0.0
 10
104.1164061165462
 20
-7.70118894174198
 30
0.0
 10
104.1164061165462
 20
-7.325706109672287
 30
0.0
 10
104.1164061165462
 20
-7.325706109672287
 30
0.0
 10
104.1164061165462
 20
-7.115489629232804
 30
0.0
 10
104.1164061165462
 20
-7.115489629232804
 30
0.0
 10
104.1164061165462
 20
-6.744275585568795
 30
0.0
 10
104.4173345569498
 20
-6.443347145165217
 30
0.0
 10
104.7885486006135
 20
-6.443347145165217
 30
0.0
 10
104.7885486006135
 20
-6.443347145165217
 30
0.0
 10
107.6810356492108
 20
-6.443347145165217
 30
0.0
 10
107.6810356492108
 20
-6.443347145165217
 30
0.0
 10
107.6810356492108
 20
-6.443347145165217
 30
0.0
 10
107.6810356492108
 20
-4.011111078319256
 30
0.0
 10
107.6810356492108
 20
-4.011111078319256
 30
0.0
 10
107.6810356492108
 20
-4.011111078319256
 30
0.0
 10
103.3210192142377
 20
-4.011111078319256
 30
0.0
 10
103.3210192142377
 20
-4.011111078319256
 30
0.0
 10
102.4478407752454
 20
-4.011111078319256
 30
0.0
 10
101.7399896730432
 20
-4.718961836820347
 30
0.0
 10
101.7399892490669
 20
-5.592140275812985
 30
0.0
 10
101.7399892490669
 20
-5.592140275812985
 30
0.0
 10
101.7399886876059
 20
-6.748468391257195
 30
0.0
 10
101.7399886876059
 20
-6.748468391257195
 30
0.0
 10
101.7399883300101
 20
-7.484936567957765
 30
0.0
 10
101.157430334398
 20
-8.085674531051557
 30
0.0
 10
100.4216711489148
 20
-8.117982367102037
 30
0.0
 10
74.02155289129836
 20
-9.277234890494256
 30
0.0
 10
52.67141865964224
 20
-18.21314115811541
 30
0.0
 10
36.91642471939901
 20
-34.71954835447597
 30
0.0
 10
21.60178296144788
 20
-50.76470915267009
 30
0.0
 10
14.51257447687511
 20
-71.13769579274556
 30
0.0
 10
11.26214505403761
 20
-85.40307719956604
 30
0.0
 10
10.07135591872419
 20
-90.62913375738027
 30
0.0
 10
9.295029782778371
 20
-95.4395081646604
 30
0.0
 10
8.788712404998593
 20
-99.5229831297341
 30
0.0
 10
8.721273963783045
 20
-100.0668775297128
 30
0.0
 10
8.233557118233875
 20
-100.4567472373338
 30
0.0
 10
7.687811302820877
 20
-100.4064424995716
 30
0.0
 10
7.687811302820877
 20
-100.4064424995716
 30
0.0
 10
7.687809173547316
 20
-100.4064423033037
 30
0.0
 10
7.687809173547316
 20
-100.4064423033037
 30
0.0
 10
7.110217799971879
 20
-100.353202165202
 30
0.0
 10
6.69428862119436
 20
-99.82809204510836
 30
0.0
 10
6.774708831056063
 20
-99.25365414856967
 30
0.0
 10
6.774708831056063
 20
-99.25365414856967
 30
0.0
 10
7.132604447406088
 20
-96.69722206029526
 30
0.0
 10
7.132604447406088
 20
-96.69722206029526
 30
0.0
 10
7.132604447406088
 20
-96.69722206029526
 30
0.0
 10
5.12466900751313
 20
-96.3789405335704
 30
0.0
 10
5.12466900751313
 20
-96.3789405335704
 30
0.0
 10
5.12466900751313
 20
-96.3789405335704
 30
0.0
 10
4.490219376530007
 20
-100.9106554380825
 30
0.0
 10
4.490219376530007
 20
-100.9106554380825
 30
0.0
 10
4.375701996642672
 20
-101.7286244176775
 30
0.0
 10
4.952633018863296
 20
-102.4821185447047
 30
0.0
 10
5.772157391754829
 20
-102.584915840941
 30
0.0
 10
5.772157391754829
 20
-102.584915840941
 30
0.0
 10
7.430851048624639
 20
-102.7929745989849
 30
0.0
 10
7.430851048624639
 20
-102.7929745989849
 30
0.0
 10
7.974363443854521
 20
-102.8611502464073
 30
0.0
 10
8.365852450428207
 20
-103.3505944331752
 30
0.0
 10
8.315696138311559
 20
-103.8960648604435
 30
0.0
 10
7.813213967029306
 20
-109.3607641793681
 30
0.0
 10
7.841419210655336
 20
-112.7315014971707
 30
0.0
 10
7.842160412228013
 20
-112.7940624696823
 30
0.0
 10
7.842160412228013
 20
-112.7940624696823
 30
0.0
 10
7.842160412228013
 20
-166.9384534948289
 30
0.0
 10
7.842160412228013
 20
-166.9384534948289
 30
0.0
 10
7.772105875849925
 20
-167.6474541456933
 30
0.0
 10
6.388314641437707
 20
-182.6326936371185
 30
0.0
 10
12.05033109005645
 20
-195.4357881163396
 30
0.0
 10
15.99572576400703
 20
-204.7464601110822
 30
0.0
 10
19.71588520894559
 20
-211.6673339632474
 30
0.0
 10
19.75300611279916
 20
-211.7361928092588
 30
0.0
 10
19.75300611279916
 20
-211.7361928092588
 30
0.0
 10
19.76631683133221
 20
-211.7286781947316
 30
0.0
 10
19.76631683133221
 20
-211.7286781947316
 30
0.0
 10
20.81938831934341
 20
-213.2858613540645
 30
0.0
 10
20.81153861545065
 20
-214.6017155746557
 30
0.0
 10
20.47392867807913
 20
-215.264035181695
 30
0.0
 10
20.28902259809131
 20
-215.6268252681386
 30
0.0
 10
20.01229261175778
 20
-215.8247890674598
 30
0.0
 10
19.67862569382836
 20
-215.8193415102237
 30
0.0
 10
19.08162563548559
 20
-215.810491921196
 30
0.0
 10
18.42029111043662
 20
-215.1629216292029
 30
0.0
 10
17.91134688525257
 20
-214.0908509778867
 30
0.0
 10
17.13125615075386
 20
-212.4054672028089
 30
0.0
 10
15.47952530645718
 20
-211.3965494581068
 30
0.0
 10
13.89561843378594
 20
-211.6370601866708
 30
0.0
 10
13.11189823736389
 20
-211.7561743630733
 30
0.0
 10
11.23758394556054
 20
-212.3857655630027
 30
0.0
 10
10.76352804086677
 20
-215.6513931053178
 30
0.0
 10
10.76352804086677
 20
-215.6513931053178
 30
0.0
 10
10.75920215827406
 20
-215.6985263179253
 30
0.0
 10
10.75920215827406
 20
-215.6985263179253
 30
0.0
 10
10.60485851618381
 20
-219.7008444660676
 30
0.0
 10
12.43228317439632
 20
-221.7178617452942
 30
0.0
 10
13.9924673348746
 20
-222.7050969202861
 30
0.0
 10
15.47199050582362
 20
-223.6411939591688
 30
0.0
 10
17.28169243552324
 20
-224.0111110868976
 30
0.0
 10
18.85122545472653
 20
-224.0111110868976
 30
0.0
 10
20.10048974766102
 20
-224.0111110868976
 30
0.0
 10
21.19764230899833
 20
-223.7765862117392
 30
0.0
 10
21.8543703645762
 20
-223.4066690840105
 30
0.0
 10
26.93864497318876
 20
-220.8537456702064
 30
0.0
 10
28.39402556093255
 20
-215.8604888694257
 30
0.0
 10
26.17976310777111
 20
-208.5653915201752
 30
0.0
 10
25.00906852374711
 20
-204.7093392072286
 30
0.0
 10
23.22769577571155
 20
-201.2251849519148
 30
0.0
 10
20.53128413494685
 20
-195.9514112512475
 30
0.0
 10
19.62922490860647
 20
-194.1868979392429
 30
0.0
 10
18.60673133450771
 20
-192.1870200100554
 30
0.0
 10
17.46227196004814
 20
-189.8900671908054
 30
0.0
 10
12.45991391678036
 20
-181.051868510018
 30
0.0
 10
13.60088647780154
 20
-167.0295870363371
 30
0.0
 10
13.61302640216578
 20
-166.8890379064624
 30
0.0
 10
13.61302640216578
 20
-166.8890379064624
 30
0.0
 10
13.61498041726132
 20
-166.8656112571627
 30
0.0
 10
13.61498041726132
 20
-166.8656112571627
 30
0.0
 10
13.61498041726132
 20
-166.8656112571627
 30
0.0
 10
13.61456189198948
 20
-166.8421953737867
 30
0.0
 10
13.61456189198948
 20
-166.8421953737867
 30
0.0
 10
13.60856123543919
 20
-166.505404992333
 30
0.0
 10
13.02481806601251
 20
-132.8458316364901
 30
0.0
 10
14.88392078093402
 20
-106.5474799313676
 30
0.0
 10
15.21591359777607
 20
-101.8511472977218
 30
0.0
 10
17.27373776387742
 20
-96.37726737897853
 30
0.0
 10
20.38880252182329
 20
-91.90460756971258
 30
0.0
 10
34.10704624448829
 20
-72.20929812639454
 30
0.0
 10
59.86984439902442
 20
-48.62796403940729
 30
0.0
 10
104.7105128329776
 20
-48.08275614702004
 30
0.0
 10
149.5511866498924
 20
-48.62796403940729
 30
0.0
 10
175.3139659640626
 20
-72.20929812639454
 30
0.0
 10
189.0322069952468
 20
-91.90460756971258
 30
0.0
 10
192.1472838648564
 20
-96.37726737897853
 30
0.0
 10
194.2051039937365
 20
-101.8511472977218
 30
0.0
 10
194.5370820074339
 20
-106.5474799313676
 30
0.0
 10
196.3961847223554
 20
-132.8458316364901
 30
0.0
 10
195.8124563560734
 20
-166.505404992333
 30
0.0
 10
195.806448970821
 20
-166.8421953737867
 30
0.0
 10
195.806448970821
 20
-166.8421953737867
 30
0.0
 10
195.8060398657321
 20
-166.8656112571627
 30
0.0
 10
195.8060398657321
 20
-166.8656112571627
 30
0.0
 10
195.8060398657321
 20
-166.8656112571627
 30
0.0
 10
195.8079777319426
 20
-166.8890379064624
 30
0.0
 10
195.8079777319426
 20
-166.8890379064624
 30
0.0
 10
195.8201216935281
 20
-167.0295870363371
 30
0.0
 10
196.9610942545493
 20
-181.051868510018
 30
0.0
 10
191.9587510144262
 20
-189.8900671908054
 30
0.0
 10
190.8142902942261
 20
-192.1870200100554
 30
0.0
 10
189.791785954204
 20
-194.1868979392429
 30
0.0
 10
188.8897307650849
 20
-195.9514112512475
 30
0.0
 10
186.1933191243202
 20
-201.2251849519148
 30
0.0
 10
184.4119463762846
 20
-204.7093392072286
 30
0.0
 10
183.2412383348564
 20
-208.5653915201752
 30
0.0
 10
181.0269893390992
 20
-215.8604888694257
 30
0.0
 10
182.482369926843
 20
-220.8537456702064
 30
0.0
 10
187.5666418439747
 20
-223.4066690840105
 30
0.0
 10
188.2233631708504
 20
-223.7765862117392
 30
0.0
 10
189.3205184236686
 20
-224.0111110868976
 30
0.0
 10
190.5697961740073
 20
-224.0111110868976
 30
0.0
 10
192.1393170815468
 20
-224.0111110868976
 30
0.0
 10
193.9490257399486
 20
-223.6411939591688
 30
0.0
 10
195.4285435279359
 20
-222.7050969202861
 30
0.0
 10
196.9887196139716
 20
-221.7178617452942
 30
0.0
 10
198.8161489822756
 20
-219.7008444660676
 30
0.0
 10
198.6618087045364
 20
-215.6985263179253
 30
0.0
 10
198.6618087045364
 20
-215.6985263179253
 30
0.0
 10
198.657480803333
 20
-215.6513931053178
 30
0.0
 10
198.657480803333
 20
-215.6513931053178
 30
0.0
 10
198.1834356645627
 20
-212.3857655630027
 30
0.0
 10
196.3091099339657
 20
-211.7561743630733
 30
0.0
 10
195.525393774765
 20
-211.6370601866708
 30
0.0
 10
193.9414895935745
 20
-211.3965494581068
 30
0.0
 10
192.2897600950183
 20
-212.4054672028089
 30
0.0
 10
191.509661286077
 20
-214.0908509778867
 30
0.0
 10
191.0007130236717
 20
-215.1629216292029
 30
0.0
 10
190.3393838815845
 20
-215.810491921196
 30
0.0
 10
189.7423918976842
 20
-215.8193415102237
 30
0.0
 10
189.408712868091
 20
-215.8247890674598
 30
0.0
 10
189.1319855732383
 20
-215.6268252681386
 30
0.0
 10
188.9470916049143
 20
-215.264035181695
 30
0.0
 10
188.6094722473598
 20
-214.6017155746557
 30
0.0
 10
188.6016346551309
 20
-213.2858613540645
 30
0.0
 10
189.6546926857378
 20
-211.7286781947316
 30
0.0
 10
189.6546926857378
 20
-211.7286781947316
 30
0.0
 10
189.6679993670496
 20
-211.7361928092588
 30
0.0
 10
189.6679993670496
 20
-211.7361928092588
 30
0.0
 10
189.7051202709032
 20
-211.6673339632474
 30
0.0
 10
193.4252850988034
 20
-204.7464601110822
 30
0.0
 10
197.3706730440519
 20
-195.4357881163396
 30
0.0
 10
203.0327090059068
 20
-182.6326936371185
 30
0.0
 10
201.6489002768691
 20
-167.6474541456933
 30
0.0
 10
201.5788571792846
 20
-166.9384534948289
 30
0.0
 10
201.5788571792846
 20
-166.9384534948289
 30
0.0
 10
201.5788571792846
 20
-112.7940624696823
 30
0.0
 10
201.5788571792846
 20
-112.7940624696823
 30
0.0
 10
201.5797567888597
 20
-112.7176688798726
 30
0.0
 10
201.6213526134558
 20
-107.7076520020306
 30
0.0
 10
200.6878307005612
 20
-99.97642568810708
 30
0.0
 10
200.6423634563219
 20
-99.59987581795397
 30
0.0
 10
200.909290935005
 20
-99.25575292304352
 30
0.0
 10
201.2858615468049
 20
-99.21045778709977
 30
0.0
 10
201.2858615468049
 20
-99.21045778709977
 30
0.0
 10
201.2858629992816
 20
-99.2104576123908
 30
0.0
 10
201.2858629992816
 20
-99.2104576123908
 30
0.0
 10
201.6632598443229
 20
-99.16506309443001
 30
0.0
 10
202.0055575982188
 20
-99.4353527081949
 30
0.0
 10
202.0489153668647
 20
-99.81298896811376
 30
0.0
 10
202.0489153668647
 20
-99.81298896811376
 30
0.0
 10
202.38630143364
 20
-102.7515445346387
 30
0.0
 10
202.38630143364
 20
-102.7515445346387
 30
0.0
 10
202.38630143364
 20
-102.7515445346387
 30
0.0
 10
204.7464932868911
 20
-102.4677009644242
 30
0.0
 10
204.7464932868911
 20
-102.4677009644242
 30
0.0
 10
204.7464932868911
 20
-102.4677009644242
 30
0.0
 10
204.1965978427582
 20
-97.67800918103718
 30
0.0
 10
204.1965978427582
 20
-97.67800918103718
 30
0.0
 10
204.117508786678
 20
-96.98912876548772
 30
0.0
 10
203.4931003586692
 20
-96.496062711672
 30
0.0
 10
202.8046555074842
 20
-96.57885759433951
 30
0.0
  0
SPLINE
  5
48
330
41
100
AcDbEntity
  8
Capa 3
 62
    12
420
 14615563
370
    35
100
AcDbSpline
210
0.0
220
0.0
230
1.0
 70
    11
 71
     3
 72
    23
 73
    19
 74
     0
 42
0.0000000001
 43
0.0000000001
 12
1.0
 22
0.0
 32
0.0
 13
1.0
 23
0.0
 33
0.0
 40
0.0
 40
0.0
 40
0.0
 40
0.0
 40
1.0
 40
1.0
 40
1.0
 40
2.0
 40
2.0
 40
2.0
 40
3.0
 40
3.0
 40
3.0
 40
4.0
 40
4.0
 40
4.0
 40
5.0
 40
5.0
 40
5.0
 40
6.0
 40
6.0
 40
6.0
 40
6.0
 10
181.8687623557251
 20
-64.8179354711389
 30
0.0
 10
160.166761578172
 20
-34.39170283690927
 30
0.0
 10
131.6453431288595
 20
-22.79952266808207
 30
0.0
 10
104.746493311892
 20
-23.53123122534963
 30
0.0
 10
77.84764349492481
 20
-22.79952266808207
 30
0.0
 10
49.32622504561134
 20
-34.39170283690927
 30
0.0
 10
27.62422426805826
 20
-64.8179354711389
 30
0.0
 10
26.4916310721873
 20
-66.40584355665753
 30
0.0
 10
28.45500314485459
 20
-68.36473828751626
 30
0.0
 10
29.9536984631905
 20
-67.13495929199026
 30
0.0
 10
43.06190349214005
 20
-56.37886836283148
 30
0.0
 10
69.78971825431312
 20
-38.2542128918879
 30
0.0
 10
104.746493311892
 20
-39.43483482497692
 30
0.0
 10
139.7032683694715
 20
-38.2542128918879
 30
0.0
 10
166.4310831316421
 20
-56.37886836283148
 30
0.0
 10
179.5392881605929
 20
-67.13495929199026
 30
0.0
 10
181.0379834789288
 20
-68.36473828751626
 30
0.0
 10
183.0013555515955
 20
-66.40584355665753
 30
0.0
 10
181.8687623557251
 20
-64.8179354711389
 30
0.0
  0
POLYLINE
  5
49
330
41
100
AcDbEntity
  8
Capa 3
 62
    22
420
 13704718
370
    70
100
AcDb2dPolyline
 66
     1
 10
0.0
 20
0.0
 30
0.0
  0
VERTEX
  5
4A
330
49
100
AcDbEntity
  8
Capa 3
 62
    22
420
 13704718
370
    70
100
AcDbVertex
100
AcDb2dVertex
 10
104.7464933118914
 20
-214.990057224437
 30
0.0
  0
VERTEX
  5
4C
330
49
100
AcDbEntity
  8
0
100
AcDbVertex
100
AcDb2dVertex
 10
104.7464933118914
 20
-214.990057224437
 30
0.0
  0
SEQEND
  5
4B
330
49
100
AcDbEntity
  8
Capa 3
 62
    22
420
 13704718
370
    70
  0
ENDBLK
  5
44
330
41
100
AcDbEntity
  8
0
100
AcDbBlockEnd
  0
ENDSEC
  0
SECTION
  2
ENTITIES
  0
INSERT
  5
42
330
1F
100
AcDbEntity
  8
Capa 3
100
AcDbBlockReference
  2
block 2
 10
0.0
 20
0.0
 30
0.0
  0
ENDSEC
  0
SECTION
  2
OBJECTS
  0
DICTIONARY
  5
C
330
0
100
AcDbDictionary
281
     1
  3
ACAD_GROUP
350
D
  3
ACAD_LAYOUT
350
1A
  3
ACAD_MATERIAL
350
3B
  3
ACAD_MLEADERSTYLE
350
4E
  3
ACAD_MLINESTYLE
350
17
  3
ACAD_PLOTSETTINGS
350
19
  3
ACAD_PLOTSTYLENAME
350
E
  3
ACAD_TABLESTYLE
350
4D
  3
ACAD_VISUALSTYLE
350
2A
  0
SUN
  5
3F
330
29
100
AcDbSun
 90
        1
290
     0
 63
     7
421
 16777215
 40
1.0
291
     1
 91
  2455826
 92
 54000000
292
     0
 70
     2
 71
   256
280
     1
  0
DICTIONARY
  5
D
102
{ACAD_REACTORS
330
C
102
}
330
C
100
AcDbDictionary
281
     1
  0
DICTIONARY
  5
1A
102
{ACAD_REACTORS
330
C
102
}
330
C
100
AcDbDictionary
281
     1
  3
Layout1
350
1E
  3
Layout2
350
26
  3
Model
350
22
  0
DICTIONARY
  5
3B
102
{ACAD_REACTORS
330
C
102
}
330
C
100
AcDbDictionary
281
     1
  3
ByBlock
350
3D
  3
ByLayer
350
3C
  3
Global
350
3E
  0
DICTIONARY
  5
4E
102
{ACAD_REACTORS
330
C
102
}
330
C
100
AcDbDictionary
281
     1
  0
DICTIONARY
  5
17
102
{ACAD_REACTORS
330
C
102
}
330
C
100
AcDbDictionary
281
     1
  3
Standard
350
18
  0
DICTIONARY
  5
19
102
{ACAD_REACTORS
330
C
102
}
330
C
100
AcDbDictionary
281
     1
  0
ACDBDICTIONARYWDFLT
  5
E
102
{ACAD_REACTORS
330
C
102
}
330
C
100
AcDbDictionary
281
     1
  3
Normal
350
F
100
AcDbDictionaryWithDefault
340
F
  0
DICTIONARY
  5
4D
102
{ACAD_REACTORS
330
C
102
}
330
C
100
AcDbDictionary
281
     1
  0
DICTIONARY
  5
2A
102
{ACAD_REACTORS
330
C
102
}
330
C
100
AcDbDictionary
281
     1
  3
2dWireframe
350
2F
  3
3D Hidden
350
31
  3
3dWireframe
350
30
  3
Basic
350
32
  3
Brighten
350
36
  3
ColorChange
350
3A
  3
Conceptual
350
34
  3
Dim
350
35
  3
Facepattern
350
39
  3
Flat
350
2B
  3
FlatWithEdges
350
2C
  3
Gouraud
350
2D
  3
GouraudWithEdges
350
2E
  3
Linepattern
350
38
  3
Realistic
350
33
  3
Thicken
350
37
  0
LAYOUT
  5
1E
102
{ACAD_REACTORS
330
1A
102
}
330
1A
100
AcDbPlotSettings
  1

  2
none_device
  4

  6

 40
0.0
 41
0.0
 42
0.0
 43
0.0
 44
0.0
 45
0.0
 46
0.0
 47
0.0
 48
0.0
 49
0.0
140
0.0
141
0.0
142
1.0
143
1.0
 70
   688
 72
     0
 73
     0
 74
     5
  7

 75
    16
 76
     0
 77
     2
 78
   300
147
1.0
148
0.0
149
0.0
100
AcDbLayout
  1
Layout1
 70
     1
 71
     1
 10
0.0
 20
0.0
 11
12.0
 21
9.0
 12
0.0
 22
0.0
 32
0.0
 14
1.000000000000000E+20
 24
1.000000000000000E+20
 34
1.000000000000000E+20
 15
-1.000000000000000E+20
 25
-1.000000000000000E+20
 35
-1.000000000000000E+20
146
0.0
 13
0.0
 23
0.0
 33
0.0
 16
1.0
 26
0.0
 36
0.0
 17
0.0
 27
1.0
 37
0.0
 76
     0
330
1B
  0
LAYOUT
  5
26
102
{ACAD_REACTORS
330
1A
102
}
330
1A
100
AcDbPlotSettings
  1

  2
none_device
  4

  6

 40
0.0
 41
0.0
 42
0.0
 43
0.0
 44
0.0
 45
0.0
 46
0.0
 47
0.0
 48
0.0
 49
0.0
140
0.0
141
0.0
142
1.0
143
1.0
 70
   688
 72
     0
 73
     0
 74
     5
  7

 75
    16
 76
     0
 77
     2
 78
   300
147
1.0
148
0.0
149
0.0
100
AcDbLayout
  1
Layout2
 70
     1
 71
     2
 10
0.0
 20
0.0
 11
0.0
 21
0.0
 12
0.0
 22
0.0
 32
0.0
 14
0.0
 24
0.0
 34
0.0
 15
0.0
 25
0.0
 35
0.0
146
0.0
 13
0.0
 23
0.0
 33
0.0
 16
1.0
 26
0.0
 36
0.0
 17
0.0
 27
1.0
 37
0.0
 76
     0
330
23
  0
LAYOUT
  5
22
102
{ACAD_REACTORS
330
1A
102
}
330
1A
100
AcDbPlotSettings
  1

  2
none_device
  4

  6

 40
0.0
 41
0.0
 42
0.0
 43
0.0
 44
0.0
 45
0.0
 46
0.0
 47
0.0
 48
0.0
 49
0.0
140
0.0
141
0.0
142
1.0
143
1.0
 70
  1712
 72
     0
 73
     0
 74
     0
  7

 75
     0
 76
     0
 77
     2
 78
   300
147
1.0
148
0.0
149
0.0
100
AcDbLayout
  1
Model
 70
     1
 71
     0
 10
0.0
 20
0.0
 11
12.0
 21
9.0
 12
0.0
 22
0.0
 32
0.0
 14
1.000000000000000E+20
 24
1.000000000000000E+20
 34
1.000000000000000E+20
 15
-1.000000000000000E+20
 25
-1.000000000000000E+20
 35
-1.000000000000000E+20
146
0.0
 13
0.0
 23
0.0
 33
0.0
 16
1.0
 26
0.0
 36
0.0
 17
0.0
 27
1.0
 37
0.0
 76
     0
330
1F
331
29
  0
MATERIAL
  5
3D
102
{ACAD_REACTORS
330
3B
102
}
330
3B
100
AcDbMaterial
  1
ByBlock
 72
     1
 94
      127
  0
MATERIAL
  5
3C
102
{ACAD_REACTORS
330
3B
102
}
330
3B
100
AcDbMaterial
  1
ByLayer
 72
     1
 94
      127
  0
MATERIAL
  5
3E
102
{ACAD_REACTORS
330
3B
102
}
330
3B
100
AcDbMaterial
  1
Global
 72
     1
 94
      127
  0
MLINESTYLE
  5
18
102
{ACAD_REACTORS
330
17
102
}
330
17
100
AcDbMlineStyle
  2
Standard
 70
     0
  3

 62
   256
 51
90.0
 52
90.0
 71
     2
 49
0.5
 62
   256
  6
BYLAYER
 49
-0.5
 62
   256
  6
BYLAYER
  0
ACDBPLACEHOLDER
  5
F
102
{ACAD_REACTORS
330
E
102
}
330
E
  0
VISUALSTYLE
  5
2F
102
{ACAD_REACTORS
330
2A
102
}
330
2A
100
AcDbVisualStyle
  2
2dWireframe
 70
     4
177
     2
291
     0
 71
     0
176
     1
 72
     2
176
     1
 73
     0
176
     1
 90
        0
176
     1
 40
-0.6
176
     1
 41
-30.0
176
     1
 62
     5
 63
     7
421
 16777215
176
     1
 74
     1
176
     1
 91
        4
176
     1
 64
     7
176
     1
 65
   257
176
     1
 75
     1
176
     1
175
     1
176
     1
 42
1.0
176
     1
 92
        0
176
     1
 66
   257
176
     1
 43
1.0
176
     1
 76
     1
176
     1
 77
     6
176
     1
 78
     2
176
     1
 67
     7
176
     1
 79
     5
176
     1
170
     0
176
     1
171
     0
176
     1
290
     0
176
     1
 93
        1
176
     1
 44
0.0
176
     1
173
     0
176
     1
  0
VISUALSTYLE
  5
31
102
{ACAD_REACTORS
330
2A
102
}
330
2A
100
AcDbVisualStyle
  2
3D Hidden
 70
     6
177
     2
291
     0
 71
     1
176
     1
 72
     2
176
     1
 73
     2
176
     1
 90
        0
176
     1
 40
-0.6
176
     1
 41
-30.0
176
     1
 62
     5
 63
     7
421
 16777215
176
     1
 74
     2
176
     1
 91
        2
176
     1
 64
     7
176
     1
 65
   257
176
     1
 75
     2
176
     1
175
     1
176
     1
 42
40.0
176
     1
 92
        0
176
     1
 66
   257
176
     1
 43
1.0
176
     1
 76
     1
176
     1
 77
     6
176
     1
 78
     2
176
     1
 67
     7
176
     1
 79
     3
176
     1
170
     0
176
     1
171
     0
176
     1
290
     0
176
     1
 93
        1
176
     1
 44
0.0
176
     1
173
     0
176
     1
  0
VISUALSTYLE
  5
30
102
{ACAD_REACTORS
330
2A
102
}
330
2A
100
AcDbVisualStyle
  2
3dWireframe
 70
     5
177
     2
291
     0
 71
     0
176
     1
 72
     2
176
     1
 73
     0
176
     1
 90
        0
176
     1
 40
-0.6
176
     1
 41
-30.0
176
     1
 62
     5
 63
     7
421
 16777215
176
     1
 74
     1
176
     1
 91
        4
176
     1
 64
     7
176
     1
 65
   257
176
     1
 75
     1
176
     1
175
     1
176
     1
 42
1.0
176
     1
 92
        0
176
     1
 66
   257
176
     1
 43
1.0
176
     1
 76
     1
176
     1
 77
     6
176
     1
 78
     2
176
     1
 67
     7
176
     1
 79
     5
176
     1
170
     0
176
     1
171
     0
176
     1
290
     0
176
     1
 93
        1
176
     1
 44
0.0
176
     1
173
     0
176
     1
  0
VISUALSTYLE
  5
32
102
{ACAD_REACTORS
330
2A
102
}
330
2A
100
AcDbVisualStyle
  2
Basic
 70
     7
177
     2
291
     1
 71
     1
176
     1
 72
     0
176
     1
 73
     1
176
     1
 90
        0
176
     1
 40
-0.6
176
     1
 41
-30.0
176
     1
 62
     5
 63
     7
421
 16777215
176
     1
 74
     0
176
     1
 91
        4
176
     1
 64
     7
176
     1
 65
   257
176
     1
 75
     1
176
     1
175
     1
176
     1
 42
1.0
176
     1
 92
        8
176
     1
 66
     7
176
     1
 43
1.0
176
     1
 76
     1
176
     1
 77
     6
176
     1
 78
     2
176
     1
 67
     7
176
     1
 79
     5
176
     1
170
     0
176
     1
171
     0
176
     1
290
     0
176
     1
 93
        1
176
     1
 44
0.0
176
     1
173
     0
176
     1
  0
VISUALSTYLE
  5
36
102
{ACAD_REACTORS
330
2A
102
}
330
2A
100
AcDbVisualStyle
  2
Brighten
 70
    12
177
     2
291
     1
 71
     2
176
     1
 72
     2
176
     1
 73
     0
176
     1
 90
        0
176
     1
 40
-0.6
176
     1
 41
-30.0
176
     1
 62
     5
 63
     7
421
 16777215
176
     1
 74
     1
176
     1
 91
        4
176
     1
 64
     7
176
     1
 65
   257
176
     1
 75
     1
176
     1
175
     1
176
     1
 42
1.0
176
     1
 92
        8
176
     1
 66
     7
176
     1
 43
1.0
176
     1
 76
     1
176
     1
 77
     6
176
     1
 78
     2
176
     1
 67
     7
176
     1
 79
     5
176
     1
170
     0
176
     1
171
     0
176
     1
290
     0
176
     1
 93
        1
176
     1
 44
50.0
176
     1
173
     0
176
     1
  0
VISUALSTYLE
  5
3A
102
{ACAD_REACTORS
330
2A
102
}
330
2A
100
AcDbVisualStyle
  2
ColorChange
 70
    16
177
     2
291
     1
 71
     2
176
     1
 72
     2
176
     1
 73
     3
176
     1
 90
        0
176
     1
 40
-0.6
176
     1
 41
-30.0
176
     1
 62
     5
 63
     8
421
  8421504
176
     1
 74
     1
176
     1
 91
        4
176
     1
 64
     7
176
     1
 65
   257
176
     1
 75
     1
176
     1
175
     1
176
     1
 42
1.0
176
     1
 92
        8
176
     1
 66
     8
424
  8421504
176
     1
 43
1.0
176
     1
 76
     1
176
     1
 77
     6
176
     1
 78
     2
176
     1
 67
     7
176
     1
 79
     5
176
     1
170
     0
176
     1
171
     0
176
     1
290
     0
176
     1
 93
        1
176
     1
 44
0.0
176
     1
173
     0
176
     1
  0
VISUALSTYLE
  5
34
102
{ACAD_REACTORS
330
2A
102
}
330
2A
100
AcDbVisualStyle
  2
Conceptual
 70
     9
177
     2
291
     0
 71
     3
176
     1
 72
     2
176
     1
 73
     0
176
     1
 90
        0
176
     1
 40
-0.6
176
     1
 41
-30.0
176
     1
 62
     5
 63
     7
421
 16777215
176
     1
 74
     2
176
     1
 91
        2
176
     1
 64
     7
176
     1
 65
   257
176
     1
 75
     1
176
     1
175
     1
176
     1
 42
40.0
176
     1
 92
        8
176
     1
 66
     7
176
     1
 43
1.0
176
     1
 76
     1
176
     1
 77
     6
176
     1
 78
     2
176
     1
 67
     7
176
     1
 79
     3
176
     1
170
     0
176
     1
171
     0
176
     1
290
     0
176
     1
 93
        1
176
     1
 44
0.0
176
     1
173
     0
176
     1
  0
VISUALSTYLE
  5
35
102
{ACAD_REACTORS
330
2A
102
}
330
2A
100
AcDbVisualStyle
  2
Dim
 70
    11
177
     2
291
     1
 71
     2
176
     1
 72
     2
176
     1
 73
     0
176
     1
 90
        0
176
     1
 40
-0.6
176
     1
 41
-30.0
176
     1
 62
     5
 63
     7
421
 16777215
176
     1
 74
     1
176
     1
 91
        4
176
     1
 64
     7
176
     1
 65
   257
176
     1
 75
     1
176
     1
175
     1
176
     1
 42
1.0
176
     1
 92
        8
176
     1
 66
     7
176
     1
 43
1.0
176
     1
 76
     1
176
     1
 77
     6
176
     1
 78
     2
176
     1
 67
     7
176
     1
 79
     5
176
     1
170
     0
176
     1
171
     0
176
     1
290
     0
176
     1
 93
        1
176
     1
 44
-50.0
176
     1
173
     0
176
     1
  0
VISUALSTYLE
  5
39
102
{ACAD_REACTORS
330
2A
102
}
330
2A
100
AcDbVisualStyle
  2
Facepattern
 70
    15
177
     2
291
     1
 71
     2
176
     1
 72
     2
176
     1
 73
     0
176
     1
 90
        0
176
     1
 40
-0.6
176
     1
 41
-30.0
176
     1
 62
     5
 63
     7
421
 16777215
176
     1
 74
     1
176
     1
 91
        4
176
     1
 64
     7
176
     1
 65
   257
176
     1
 75
     1
176
     1
175
     1
176
     1
 42
1.0
176
     1
 92
        8
176
     1
 66
     7
176
     1
 43
1.0
176
     1
 76
     1
176
     1
 77
     6
176
     1
 78
     2
176
     1
 67
     7
176
     1
 79
     5
176
     1
170
     0
176
     1
171
     0
176
     1
290
     0
176
     1
 93
        1
176
     1
 44
0.0
176
     1
173
     0
176
     1
  0
VISUALSTYLE
  5
2B
102
{ACAD_REACTORS
330
2A
102
}
330
2A
100
AcDbVisualStyle
  2
Flat
 70
     0
177
     2
291
     1
 71
     2
176
     1
 72
     1
176
     1
 73
     1
176
     1
 90
        2
176
     1
 40
-0.6
176
     1
 41
30.0
176
     1
 62
     5
 63
     7
421
 16777215
176
     1
 74
     0
176
     1
 91
        4
176
     1
 64
     7
176
     1
 65
   257
176
     1
 75
     1
176
     1
175
     1
176
     1
 42
1.0
176
     1
 92
        8
176
     1
 66
     7
176
     1
 43
1.0
176
     1
 76
     1
176
     1
 77
     6
176
     1
 78
     2
176
     1
 67
     7
176
     1
 79
     5
176
     1
170
     0
176
     1
171
     0
176
     1
290
     0
176
     1
 93
       13
176
     1
 44
0.0
176
     1
173
     0
176
     1
  0
VISUALSTYLE
  5
2C
102
{ACAD_REACTORS
330
2A
102
}
330
2A
100
AcDbVisualStyle
  2
FlatWithEdges
 70
     1
177
     2
291
     1
 71
     2
176
     1
 72
     1
176
     1
 73
     1
176
     1
 90
        2
176
     1
 40
-0.6
176
     1
 41
30.0
176
     1
 62
     5
 63
     7
421
 16777215
176
     1
 74
     1
176
     1
 91
        4
176
     1
 64
     7
176
     1
 65
   257
176
     1
 75
     1
176
     1
175
     1
176
     1
 42
1.0
176
     1
 92
        0
176
     1
 66
   257
176
     1
 43
1.0
176
     1
 76
     1
176
     1
 77
     6
176
     1
 78
     2
176
     1
 67
     7
176
     1
 79
     5
176
     1
170
     0
176
     1
171
     0
176
     1
290
     0
176
     1
 93
       13
176
     1
 44
0.0
176
     1
173
     0
176
     1
  0
VISUALSTYLE
  5
2D
102
{ACAD_REACTORS
330
2A
102
}
330
2A
100
AcDbVisualStyle
  2
Gouraud
 70
     2
177
     2
291
     1
 71
     2
176
     1
 72
     2
176
     1
 73
     1
176
     1
 90
        2
176
     1
 40
-0.6
176
     1
 41
30.0
176
     1
 62
     5
 63
     7
421
 16777215
176
     1
 74
     0
176
     1
 91
        4
176
     1
 64
     7
176
     1
 65
   257
176
     1
 75
     1
176
     1
175
     1
176
     1
 42
1.0
176
     1
 92
        0
176
     1
 66
     7
176
     1
 43
1.0
176
     1
 76
     1
176
     1
 77
     6
176
     1
 78
     2
176
     1
 67
     7
176
     1
 79
     5
176
     1
170
     0
176
     1
171
     0
176
     1
290
     0
176
     1
 93
       13
176
     1
 44
0.0
176
     1
173
     0
176
     1
  0
VISUALSTYLE
  5
2E
102
{ACAD_REACTORS
330
2A
102
}
330
2A
100
AcDbVisualStyle
  2
GouraudWithEdges
 70
     3
177
     2
291
     1
 71
     2
176
     1
 72
     2
176
     1
 73
     1
176
     1
 90
        2
176
     1
 40
-0.6
176
     1
 41
30.0
176
     1
 62
     5
 63
     7
421
 16777215
176
     1
 74
     1
176
     1
 91
        4
176
     1
 64
     7
176
     1
 65
   257
176
     1
 75
     1
176
     1
175
     1
176
     1
 42
1.0
176
     1
 92
        0
176
     1
 66
   257
176
     1
 43
1.0
176
     1
 76
     1
176
     1
 77
     6
176
     1
 78
     2
176
     1
 67
     7
176
     1
 79
     5
176
     1
170
     0
176
     1
171
     0
176
     1
290
     0
176
     1
 93
       13
176
     1
 44
0.0
176
     1
173
     0
176
     1
  0
VISUALSTYLE
  5
38
102
{ACAD_REACTORS
330
2A
102
}
330
2A
100
AcDbVisualStyle
  2
Linepattern
 70
    14
177
     2
291
     1
 71
     2
176
     1
 72
     2
176
     1
 73
     0
176
     1
 90
        0
176
     1
 40
-0.6
176
     1
 41
-30.0
176
     1
 62
     5
 63
     7
421
 16777215
176
     1
 74
     1
176
     1
 91
        4
176
     1
 64
     7
176
     1
 65
   257
176
     1
 75
     7
176
     1
175
     7
176
     1
 42
1.0
176
     1
 92
        8
176
     1
 66
     7
176
     1
 43
1.0
176
     1
 76
     1
176
     1
 77
     6
176
     1
 78
     2
176
     1
 67
     7
176
     1
 79
     5
176
     1
170
     0
176
     1
171
     0
176
     1
290
     0
176
     1
 93
        1
176
     1
 44
0.0
176
     1
173
     0
176
     1
  0
VISUALSTYLE
  5
33
102
{ACAD_REACTORS
330
2A
102
}
330
2A
100
AcDbVisualStyle
  2
Realistic
 70
     8
177
     2
291
     0
 71
     2
176
     1
 72
     2
176
     1
 73
     0
176
     1
 90
        0
176
     1
 40
-0.6
176
     1
 41
-30.0
176
     1
 62
     5
 63
     7
421
 16777215
176
     1
 74
     1
176
     1
 91
        0
176
     1
 64
     7
176
     1
 65
   257
176
     1
 75
     1
176
     1
175
     1
176
     1
 42
1.0
176
     1
 92
        8
176
     1
 66
     8
424
  7895160
176
     1
 43
1.0
176
     1
 76
     1
176
     1
 77
     6
176
     1
 78
     2
176
     1
 67
     7
176
     1
 79
     5
176
     1
170
     0
176
     1
171
     0
176
     1
290
     0
176
     1
 93
       13
176
     1
 44
0.0
176
     1
173
     0
176
     1
  0
VISUALSTYLE
  5
37
102
{ACAD_REACTORS
330
2A
102
}
330
2A
100
AcDbVisualStyle
  2
Thicken
 70
    13
177
     2
291
     1
 71
     2
176
     1
 72
     2
176
     1
 73
     0
176
     1
 90
        0
176
     1
 40
-0.6
176
     1
 41
-30.0
176
     1
 62
     5
 63
     7
421
 16777215
176
     1
 74
     1
176
     1
 91
        4
176
     1
 64
     7
176
     1
 65
   257
176
     1
 75
     1
176
     1
175
     1
176
     1
 42
1.0
176
     1
 92
       12
176
     1
 66
     7
176
     1
 43
1.0
176
     1
 76
     1
176
     1
 77
     6
176
     1
 78
     2
176
     1
 67
     7
176
     1
 79
     5
176
     1
170
     0
176
     1
171
     0
176
     1
290
     0
176
     1
 93
        1
176
     1
 44
0.0
176
     1
173
     0
176
     1
  0
ENDSEC
  0
EOF
